<mxfile host="app.diagrams.net" agent="Mozilla/5.0 (Windows NT 10.0; Win64; x64) AppleWebKit/537.36 (KHTML, like Gecko) Chrome/129.0.0.0 Safari/537.36" version="24.7.17">
  <diagram id="C5RBs43oDa-KdzZeNtuy" name="Page-1">
    <mxGraphModel dx="2074" dy="1132" grid="1" gridSize="10" guides="1" tooltips="1" connect="1" arrows="1" fold="1" page="1" pageScale="1" pageWidth="827" pageHeight="583" background="none" math="0" shadow="0">
      <root>
        <mxCell id="WIyWlLk6GJQsqaUBKTNV-0" />
        <mxCell id="WIyWlLk6GJQsqaUBKTNV-1" parent="WIyWlLk6GJQsqaUBKTNV-0" />
        <mxCell id="fSq9os91kgyi0kjsBwvN-25" style="edgeStyle=orthogonalEdgeStyle;rounded=0;orthogonalLoop=1;jettySize=auto;html=1;exitX=0;exitY=0.5;exitDx=0;exitDy=0;entryX=1;entryY=0.5;entryDx=0;entryDy=0;labelBackgroundColor=none;fontColor=default;" parent="WIyWlLk6GJQsqaUBKTNV-1" target="fSq9os91kgyi0kjsBwvN-4" edge="1">
          <mxGeometry relative="1" as="geometry">
            <mxPoint x="287.9999999999999" y="332" as="sourcePoint" />
          </mxGeometry>
        </mxCell>
        <mxCell id="fSq9os91kgyi0kjsBwvN-27" style="edgeStyle=orthogonalEdgeStyle;rounded=0;orthogonalLoop=1;jettySize=auto;html=1;exitX=0.5;exitY=1;exitDx=0;exitDy=0;labelBackgroundColor=none;fontColor=default;" parent="WIyWlLk6GJQsqaUBKTNV-1" source="fSq9os91kgyi0kjsBwvN-43" edge="1">
          <mxGeometry relative="1" as="geometry">
            <mxPoint x="318" y="362" as="targetPoint" />
            <Array as="points">
              <mxPoint x="643" y="392" />
              <mxPoint x="318" y="392" />
            </Array>
          </mxGeometry>
        </mxCell>
        <mxCell id="fSq9os91kgyi0kjsBwvN-44" style="edgeStyle=orthogonalEdgeStyle;rounded=0;orthogonalLoop=1;jettySize=auto;html=1;exitX=1;exitY=0.5;exitDx=0;exitDy=0;entryX=0;entryY=0.5;entryDx=0;entryDy=0;labelBackgroundColor=none;fontColor=default;" parent="WIyWlLk6GJQsqaUBKTNV-1" source="fSq9os91kgyi0kjsBwvN-3" target="fSq9os91kgyi0kjsBwvN-43" edge="1">
          <mxGeometry relative="1" as="geometry" />
        </mxCell>
        <mxCell id="fSq9os91kgyi0kjsBwvN-3" value="Right&amp;nbsp;&lt;span style=&quot;color: rgba(0, 0, 0, 0); font-family: monospace; font-size: 0px; text-align: start; text-wrap: nowrap;&quot;&gt;%3CmxGraphModel%3E%3Croot%3E%3CmxCell%20id%3D%220%22%2F%3E%3CmxCell%20id%3D%221%22%20parent%3D%220%22%2F%3E%3CmxCell%20id%3D%222%22%20value%3D%222%20Motors%22%20style%3D%22rounded%3D0%3BwhiteSpace%3Dwrap%3Bhtml%3D1%3B%22%20vertex%3D%221%22%20parent%3D%221%22%3E%3CmxGeometry%20x%3D%22480%22%20y%3D%22310%22%20width%3D%2270%22%20height%3D%2260%22%20as%3D%22geometry%22%2F%3E%3C%2FmxCell%3E%3C%2Froot%3E%3C%2FmxGraphModel%3E&lt;/span&gt;Motor" style="rounded=0;whiteSpace=wrap;html=1;labelBackgroundColor=none;" parent="WIyWlLk6GJQsqaUBKTNV-1" vertex="1">
          <mxGeometry x="498" y="302" width="70" height="60" as="geometry" />
        </mxCell>
        <mxCell id="fSq9os91kgyi0kjsBwvN-26" style="edgeStyle=orthogonalEdgeStyle;rounded=0;orthogonalLoop=1;jettySize=auto;html=1;exitX=0.5;exitY=1;exitDx=0;exitDy=0;entryX=0.5;entryY=1;entryDx=0;entryDy=0;labelBackgroundColor=none;fontColor=default;" parent="WIyWlLk6GJQsqaUBKTNV-1" source="fSq9os91kgyi0kjsBwvN-4" edge="1">
          <mxGeometry relative="1" as="geometry">
            <mxPoint x="317.9999999999999" y="362" as="targetPoint" />
            <Array as="points">
              <mxPoint x="178" y="392" />
              <mxPoint x="318" y="392" />
            </Array>
          </mxGeometry>
        </mxCell>
        <mxCell id="fSq9os91kgyi0kjsBwvN-28" value="&lt;span style=&quot;background-color: rgb(255, 255, 255);&quot;&gt;Data&lt;/span&gt;" style="edgeLabel;html=1;align=center;verticalAlign=middle;resizable=0;points=[];labelBackgroundColor=none;" parent="fSq9os91kgyi0kjsBwvN-26" vertex="1" connectable="0">
          <mxGeometry x="0.774" y="-1" relative="1" as="geometry">
            <mxPoint x="-1" y="-3" as="offset" />
          </mxGeometry>
        </mxCell>
        <mxCell id="fSq9os91kgyi0kjsBwvN-4" value="Distance&amp;nbsp;&lt;br&gt;Sensor" style="rounded=0;whiteSpace=wrap;html=1;labelBackgroundColor=none;" parent="WIyWlLk6GJQsqaUBKTNV-1" vertex="1">
          <mxGeometry x="128" y="302" width="100" height="60" as="geometry" />
        </mxCell>
        <mxCell id="fSq9os91kgyi0kjsBwvN-29" style="edgeStyle=orthogonalEdgeStyle;rounded=0;orthogonalLoop=1;jettySize=auto;html=1;exitX=0.25;exitY=1;exitDx=0;exitDy=0;entryX=0.25;entryY=0;entryDx=0;entryDy=0;labelBackgroundColor=none;fontColor=default;" parent="WIyWlLk6GJQsqaUBKTNV-1" source="fSq9os91kgyi0kjsBwvN-12" edge="1">
          <mxGeometry relative="1" as="geometry">
            <mxPoint x="302.9999999999999" y="302" as="targetPoint" />
          </mxGeometry>
        </mxCell>
        <mxCell id="fSq9os91kgyi0kjsBwvN-32" value="&lt;span style=&quot;background-color: rgb(250, 250, 250);&quot;&gt;Commands&lt;/span&gt;" style="edgeLabel;html=1;align=center;verticalAlign=middle;resizable=0;points=[];labelBackgroundColor=none;" parent="fSq9os91kgyi0kjsBwvN-29" vertex="1" connectable="0">
          <mxGeometry x="0.0073" y="1" relative="1" as="geometry">
            <mxPoint x="-26" y="5" as="offset" />
          </mxGeometry>
        </mxCell>
        <mxCell id="fSq9os91kgyi0kjsBwvN-12" value="Wi-Fi&amp;nbsp;&lt;br&gt;module" style="whiteSpace=wrap;html=1;aspect=fixed;labelBackgroundColor=none;" parent="WIyWlLk6GJQsqaUBKTNV-1" vertex="1">
          <mxGeometry x="288" y="172" width="60" height="60" as="geometry" />
        </mxCell>
        <mxCell id="fSq9os91kgyi0kjsBwvN-30" style="edgeStyle=orthogonalEdgeStyle;rounded=0;orthogonalLoop=1;jettySize=auto;html=1;exitX=0.75;exitY=0;exitDx=0;exitDy=0;entryX=0.752;entryY=1.058;entryDx=0;entryDy=0;entryPerimeter=0;labelBackgroundColor=none;fontColor=default;" parent="WIyWlLk6GJQsqaUBKTNV-1" target="fSq9os91kgyi0kjsBwvN-12" edge="1">
          <mxGeometry relative="1" as="geometry">
            <mxPoint x="332.9999999999999" y="302" as="sourcePoint" />
          </mxGeometry>
        </mxCell>
        <mxCell id="fSq9os91kgyi0kjsBwvN-31" value="&lt;span style=&quot;background-color: rgb(255, 255, 255);&quot;&gt;Data&lt;/span&gt;" style="edgeLabel;html=1;align=center;verticalAlign=middle;resizable=0;points=[];labelBackgroundColor=none;" parent="fSq9os91kgyi0kjsBwvN-30" vertex="1" connectable="0">
          <mxGeometry x="0.1445" y="1" relative="1" as="geometry">
            <mxPoint x="6" y="-4" as="offset" />
          </mxGeometry>
        </mxCell>
        <mxCell id="fSq9os91kgyi0kjsBwvN-41" style="edgeStyle=orthogonalEdgeStyle;rounded=0;orthogonalLoop=1;jettySize=auto;html=1;exitX=1;exitY=0.5;exitDx=0;exitDy=0;entryX=0;entryY=0.5;entryDx=0;entryDy=0;labelBackgroundColor=none;fontColor=default;" parent="WIyWlLk6GJQsqaUBKTNV-1" source="fSq9os91kgyi0kjsBwvN-33" target="fSq9os91kgyi0kjsBwvN-40" edge="1">
          <mxGeometry relative="1" as="geometry" />
        </mxCell>
        <mxCell id="fSq9os91kgyi0kjsBwvN-33" value="Î¼C" style="whiteSpace=wrap;html=1;aspect=fixed;labelBackgroundColor=none;" parent="WIyWlLk6GJQsqaUBKTNV-1" vertex="1">
          <mxGeometry x="288" y="302" width="60" height="60" as="geometry" />
        </mxCell>
        <mxCell id="fSq9os91kgyi0kjsBwvN-35" value="" style="verticalLabelPosition=bottom;html=1;verticalAlign=top;align=center;shape=mxgraph.azure.laptop;pointerEvents=1;labelBackgroundColor=none;" parent="WIyWlLk6GJQsqaUBKTNV-1" vertex="1">
          <mxGeometry x="293" y="82" width="50" height="30" as="geometry" />
        </mxCell>
        <mxCell id="fSq9os91kgyi0kjsBwvN-37" value="" style="endArrow=classic;startArrow=classic;html=1;rounded=0;exitX=0.5;exitY=0;exitDx=0;exitDy=0;labelBackgroundColor=none;fontColor=default;entryX=0.5;entryY=1;entryDx=0;entryDy=0;entryPerimeter=0;" parent="WIyWlLk6GJQsqaUBKTNV-1" source="fSq9os91kgyi0kjsBwvN-12" target="fSq9os91kgyi0kjsBwvN-35" edge="1">
          <mxGeometry width="50" height="50" relative="1" as="geometry">
            <mxPoint x="318" y="172" as="sourcePoint" />
            <mxPoint x="340" y="140" as="targetPoint" />
            <Array as="points" />
          </mxGeometry>
        </mxCell>
        <mxCell id="fSq9os91kgyi0kjsBwvN-38" value="&lt;span style=&quot;background-color: rgb(255, 255, 255);&quot;&gt;Wi-Fi&lt;/span&gt;" style="edgeLabel;html=1;align=center;verticalAlign=middle;resizable=0;points=[];labelBackgroundColor=none;" parent="fSq9os91kgyi0kjsBwvN-37" vertex="1" connectable="0">
          <mxGeometry x="-0.0702" relative="1" as="geometry">
            <mxPoint x="-2" y="-4" as="offset" />
          </mxGeometry>
        </mxCell>
        <mxCell id="fSq9os91kgyi0kjsBwvN-42" style="edgeStyle=orthogonalEdgeStyle;rounded=0;orthogonalLoop=1;jettySize=auto;html=1;exitX=1;exitY=0.5;exitDx=0;exitDy=0;entryX=0;entryY=0.5;entryDx=0;entryDy=0;labelBackgroundColor=none;fontColor=default;" parent="WIyWlLk6GJQsqaUBKTNV-1" source="fSq9os91kgyi0kjsBwvN-40" target="fSq9os91kgyi0kjsBwvN-3" edge="1">
          <mxGeometry relative="1" as="geometry" />
        </mxCell>
        <mxCell id="fSq9os91kgyi0kjsBwvN-51" style="edgeStyle=orthogonalEdgeStyle;rounded=0;orthogonalLoop=1;jettySize=auto;html=1;exitX=1;exitY=0.5;exitDx=0;exitDy=0;entryX=0;entryY=0.5;entryDx=0;entryDy=0;labelBackgroundColor=none;fontColor=default;" parent="WIyWlLk6GJQsqaUBKTNV-1" source="fSq9os91kgyi0kjsBwvN-40" target="fSq9os91kgyi0kjsBwvN-47" edge="1">
          <mxGeometry relative="1" as="geometry" />
        </mxCell>
        <mxCell id="fSq9os91kgyi0kjsBwvN-40" value="Motor&amp;nbsp;&lt;div&gt;Driver&lt;/div&gt;" style="whiteSpace=wrap;html=1;aspect=fixed;labelBackgroundColor=none;" parent="WIyWlLk6GJQsqaUBKTNV-1" vertex="1">
          <mxGeometry x="398" y="302" width="60" height="60" as="geometry" />
        </mxCell>
        <mxCell id="fSq9os91kgyi0kjsBwvN-43" value="Encoder" style="rounded=0;whiteSpace=wrap;html=1;labelBackgroundColor=none;" parent="WIyWlLk6GJQsqaUBKTNV-1" vertex="1">
          <mxGeometry x="608" y="302" width="70" height="60" as="geometry" />
        </mxCell>
        <mxCell id="fSq9os91kgyi0kjsBwvN-50" style="edgeStyle=orthogonalEdgeStyle;rounded=0;orthogonalLoop=1;jettySize=auto;html=1;exitX=1;exitY=0.5;exitDx=0;exitDy=0;entryX=0;entryY=0.5;entryDx=0;entryDy=0;labelBackgroundColor=none;fontColor=default;" parent="WIyWlLk6GJQsqaUBKTNV-1" source="fSq9os91kgyi0kjsBwvN-47" target="fSq9os91kgyi0kjsBwvN-48" edge="1">
          <mxGeometry relative="1" as="geometry" />
        </mxCell>
        <mxCell id="fSq9os91kgyi0kjsBwvN-47" value="Left&amp;nbsp;&lt;span style=&quot;color: rgba(0, 0, 0, 0); font-family: monospace; font-size: 0px; text-align: start; text-wrap: nowrap;&quot;&gt;%3CmxGraphModel%3E%3Croot%3E%3CmxCell%20id%3D%220%22%2F%3E%3CmxCell%20id%3D%221%22%20parent%3D%220%22%2F%3E%3CmxCell%20id%3D%222%22%20value%3D%222%20Motors%22%20style%3D%22rounded%3D0%3BwhiteSpace%3Dwrap%3Bhtml%3D1%3B%22%20vertex%3D%221%22%20parent%3D%221%22%3E%3CmxGeometry%20x%3D%22480%22%20y%3D%22310%22%20width%3D%2270%22%20height%3D%2260%22%20as%3D%22geometry%22%2F%3E%3C%2FmxCell%3E%3C%2Froot%3E%3C%2FmxGraphModel%3E&lt;/span&gt;Motor" style="rounded=0;whiteSpace=wrap;html=1;labelBackgroundColor=none;" parent="WIyWlLk6GJQsqaUBKTNV-1" vertex="1">
          <mxGeometry x="498" y="232" width="70" height="60" as="geometry" />
        </mxCell>
        <mxCell id="fSq9os91kgyi0kjsBwvN-49" style="edgeStyle=orthogonalEdgeStyle;rounded=0;orthogonalLoop=1;jettySize=auto;html=1;exitX=1;exitY=0.5;exitDx=0;exitDy=0;labelBackgroundColor=none;fontColor=default;" parent="WIyWlLk6GJQsqaUBKTNV-1" source="fSq9os91kgyi0kjsBwvN-48" edge="1">
          <mxGeometry relative="1" as="geometry">
            <mxPoint x="643" y="392" as="targetPoint" />
            <Array as="points">
              <mxPoint x="698" y="262" />
              <mxPoint x="698" y="392" />
            </Array>
          </mxGeometry>
        </mxCell>
        <mxCell id="fSq9os91kgyi0kjsBwvN-48" value="Encoder" style="rounded=0;whiteSpace=wrap;html=1;labelBackgroundColor=none;" parent="WIyWlLk6GJQsqaUBKTNV-1" vertex="1">
          <mxGeometry x="608" y="232" width="70" height="60" as="geometry" />
        </mxCell>
        <mxCell id="fSq9os91kgyi0kjsBwvN-56" style="edgeStyle=orthogonalEdgeStyle;rounded=0;orthogonalLoop=1;jettySize=auto;html=1;exitX=1;exitY=0.5;exitDx=0;exitDy=0;entryX=0;entryY=0.5;entryDx=0;entryDy=0;labelBackgroundColor=none;fontColor=default;" parent="WIyWlLk6GJQsqaUBKTNV-1" source="fSq9os91kgyi0kjsBwvN-54" target="fSq9os91kgyi0kjsBwvN-55" edge="1">
          <mxGeometry relative="1" as="geometry" />
        </mxCell>
        <mxCell id="fSq9os91kgyi0kjsBwvN-54" value="Power" style="whiteSpace=wrap;html=1;aspect=fixed;labelBackgroundColor=none;" parent="WIyWlLk6GJQsqaUBKTNV-1" vertex="1">
          <mxGeometry x="301" y="442" width="60" height="60" as="geometry" />
        </mxCell>
        <mxCell id="fSq9os91kgyi0kjsBwvN-58" style="edgeStyle=orthogonalEdgeStyle;rounded=0;orthogonalLoop=1;jettySize=auto;html=1;exitX=1;exitY=0.5;exitDx=0;exitDy=0;entryX=0;entryY=0.5;entryDx=0;entryDy=0;labelBackgroundColor=none;fontColor=default;" parent="WIyWlLk6GJQsqaUBKTNV-1" source="fSq9os91kgyi0kjsBwvN-55" edge="1">
          <mxGeometry relative="1" as="geometry">
            <mxPoint x="501" y="472" as="targetPoint" />
          </mxGeometry>
        </mxCell>
        <mxCell id="fSq9os91kgyi0kjsBwvN-55" value="Voltage&lt;br&gt;Regulator" style="whiteSpace=wrap;html=1;aspect=fixed;labelBackgroundColor=none;" parent="WIyWlLk6GJQsqaUBKTNV-1" vertex="1">
          <mxGeometry x="401" y="442" width="60" height="60" as="geometry" />
        </mxCell>
        <mxCell id="fSq9os91kgyi0kjsBwvN-64" value="" style="shape=flexArrow;endArrow=classic;html=1;rounded=0;endWidth=22.638888888888886;endSize=19.5125;width=37.77777777777778;" parent="WIyWlLk6GJQsqaUBKTNV-1" edge="1">
          <mxGeometry width="50" height="50" relative="1" as="geometry">
            <mxPoint x="500" y="471.83000000000004" as="sourcePoint" />
            <mxPoint x="590" y="472" as="targetPoint" />
          </mxGeometry>
        </mxCell>
        <mxCell id="fSq9os91kgyi0kjsBwvN-65" value="&lt;div style=&quot;text-align: justify;&quot;&gt;&lt;font style=&quot;font-size: 11px;&quot;&gt;Power system&lt;/font&gt;&lt;/div&gt;" style="edgeLabel;html=1;align=center;verticalAlign=middle;resizable=0;points=[];" parent="fSq9os91kgyi0kjsBwvN-64" vertex="1" connectable="0">
          <mxGeometry x="-0.2261" y="3" relative="1" as="geometry">
            <mxPoint as="offset" />
          </mxGeometry>
        </mxCell>
      </root>
    </mxGraphModel>
  </diagram>
</mxfile>
